HIERARCHY
ROOT Root
{
  OFFSET 0.0 0.0 0.0
  CHANNELS 6 Xposition Yposition Zposition Zrotation Yrotation Xrotation
  JOINT Hips
  {
    OFFSET 0.0 100.0 0.0
    CHANNELS 6 Xposition Yposition Zposition Zrotation Yrotation Xrotation
    JOINT Spine1
    {
      OFFSET 5.003913 -0.037094 -0.013727
      CHANNELS 3 Zrotation Yrotation Xrotation
      JOINT Spine2
      {
        OFFSET 7.125363 -1e-06 0.0
        CHANNELS 3 Zrotation Yrotation Xrotation
        JOINT Chest
        {
          OFFSET 7.594027 1e-06 0.0
          CHANNELS 3 Zrotation Yrotation Xrotation
          JOINT Neck1
          {
            OFFSET 26.313086 -0.460272 -0.181672
            CHANNELS 3 Zrotation Yrotation Xrotation
            JOINT Neck2
            {
              OFFSET 8.045911 0.0 0.0
              CHANNELS 3 Zrotation Yrotation Xrotation
              JOINT Head
              {
                OFFSET 6.432774 0.0 0.0
                CHANNELS 3 Zrotation Yrotation Xrotation
                JOINT HeadEnd
                {
                  OFFSET 16.169773 0.06451 0.00362
                  CHANNELS 3 Zrotation Yrotation Xrotation
                }
                JOINT Jaw
                {
                  OFFSET 0.108741 3.12938 0.002639
                  CHANNELS 3 Zrotation Yrotation Xrotation
                }
                JOINT LeftEye
                {
                  OFFSET 4.45173 8.166359 3.206392
                  CHANNELS 3 Zrotation Yrotation Xrotation
                }
                JOINT RightEye
                {
                  OFFSET 4.436895 8.135758 -3.222429
                  CHANNELS 3 Zrotation Yrotation Xrotation
                }
              }
            }
          }
          JOINT LeftShoulder
          {
            OFFSET 23.218927 5.195579 1.621656
            CHANNELS 3 Zrotation Yrotation Xrotation
            JOINT LeftArm
            {
              OFFSET 15.902118 2e-06 -2e-06
              CHANNELS 3 Zrotation Yrotation Xrotation
              JOINT LeftForeArm
              {
                OFFSET 28.739307 0.0 -1e-06
                CHANNELS 3 Zrotation Yrotation Xrotation
                JOINT LeftHand
                {
                  OFFSET 27.093981 -4e-06 0.0
                  CHANNELS 3 Zrotation Yrotation Xrotation
                  JOINT LeftHandThumb1
                  {
                    OFFSET 2.276781 3.380274 0.83384
                    CHANNELS 3 Zrotation Yrotation Xrotation
                    JOINT LeftHandThumb2
                    {
                      OFFSET 4.705309 -1e-06 -1e-06
                      CHANNELS 3 Zrotation Yrotation Xrotation
                      JOINT LeftHandThumb3
                      {
                        OFFSET 2.798515 0.0 3e-06
                        CHANNELS 3 Zrotation Yrotation Xrotation
                        JOINT LeftHandThumbEnd
                        {
                          OFFSET 3.180793 4e-06 -4e-06
                          CHANNELS 3 Zrotation Yrotation Xrotation
                        }
                      }
                    }
                  }
                  JOINT LeftHandIndex1
                  {
                    OFFSET 3.247786 2.352677 0.137192
                    CHANNELS 3 Zrotation Yrotation Xrotation
                    JOINT LeftHandIndex2
                    {
                      OFFSET 6.367095 1e-06 0.0
                      CHANNELS 3 Zrotation Yrotation Xrotation
                      JOINT LeftHandIndex3
                      {
                        OFFSET 3.662364 0.0 0.0
                        CHANNELS 3 Zrotation Yrotation Xrotation
                        JOINT LeftHandIndex4
                        {
                          OFFSET 2.329242 4e-06 -4e-06
                          CHANNELS 3 Zrotation Yrotation Xrotation
                          JOINT LeftHandIndexEnd
                          {
                            OFFSET 2.767823 1e-06 0.0
                            CHANNELS 3 Zrotation Yrotation Xrotation
                          }
                        }
                      }
                    }
                  }
                  JOINT LeftHandMiddle1
                  {
                    OFFSET 3.163612 0.945023 -0.406112
                    CHANNELS 3 Zrotation Yrotation Xrotation
                    JOINT LeftHandMiddle2
                    {
                      OFFSET 6.276789 3e-06 0.0
                      CHANNELS 3 Zrotation Yrotation Xrotation
                      JOINT LeftHandMiddle3
                      {
                        OFFSET 4.35652 -1e-06 4e-06
                        CHANNELS 3 Zrotation Yrotation Xrotation
                        JOINT LeftHandMiddle4
                        {
                          OFFSET 2.996877 0.0 8e-06
                          CHANNELS 3 Zrotation Yrotation Xrotation
                          JOINT LeftHandMiddleEnd
                          {
                            OFFSET 2.323256 3e-06 -4e-06
                            CHANNELS 3 Zrotation Yrotation Xrotation
                          }
                        }
                      }
                    }
                  }
                  JOINT LeftHandRing1
                  {
                    OFFSET 2.882606 -0.309162 0.107445
                    CHANNELS 3 Zrotation Yrotation Xrotation
                    JOINT LeftHandRing2
                    {
                      OFFSET 6.033198 0.0 4e-06
                      CHANNELS 3 Zrotation Yrotation Xrotation
                      JOINT LeftHandRing3
                      {
                        OFFSET 4.350578 3e-06 0.0
                        CHANNELS 3 Zrotation Yrotation Xrotation
                        JOINT LeftHandRing4
                        {
                          OFFSET 2.651321 2e-06 -7e-06
                          CHANNELS 3 Zrotation Yrotation Xrotation
                          JOINT LeftHandRingEnd
                          {
                            OFFSET 1.937663 1e-06 -4e-06
                            CHANNELS 3 Zrotation Yrotation Xrotation
                          }
                        }
                      }
                    }
                  }
                  JOINT LeftHandPinky1
                  {
                    OFFSET 2.865315 -1.525436 0.575687
                    CHANNELS 3 Zrotation Yrotation Xrotation
                    JOINT LeftHandPinky2
                    {
                      OFFSET 5.54936 1e-06 -8e-06
                      CHANNELS 3 Zrotation Yrotation Xrotation
                      JOINT LeftHandPinky3
                      {
                        OFFSET 3.070974 0.0 -4e-06
                        CHANNELS 3 Zrotation Yrotation Xrotation
                        JOINT LeftHandPinky4
                        {
                          OFFSET 1.549672 1e-06 0.0
                          CHANNELS 3 Zrotation Yrotation Xrotation
                          JOINT LeftHandPinkyEnd
                          {
                            OFFSET 1.952123 0.0 0.0
                            CHANNELS 3 Zrotation Yrotation Xrotation
                          }
                        }
                      }
                    }
                  }
                }
              }
            }
          }
          JOINT RightShoulder
          {
            OFFSET 23.161716 5.296122 -1.380114
            CHANNELS 3 Zrotation Yrotation Xrotation
            JOINT RightArm
            {
              OFFSET -16.027195 -2e-06 1.1e-05
              CHANNELS 3 Zrotation Yrotation Xrotation
              JOINT RightForeArm
              {
                OFFSET -28.736639 4e-06 2e-06
                CHANNELS 3 Zrotation Yrotation Xrotation
                JOINT RightHand
                {
                  OFFSET -27.133619 6e-06 0.0
                  CHANNELS 3 Zrotation Yrotation Xrotation
                  JOINT RightHandThumb1
                  {
                    OFFSET -2.274328 -3.351035 -0.83067
                    CHANNELS 3 Zrotation Yrotation Xrotation
                    JOINT RightHandThumb2
                    {
                      OFFSET -4.703594 -3e-06 2e-06
                      CHANNELS 3 Zrotation Yrotation Xrotation
                      JOINT RightHandThumb3
                      {
                        OFFSET -2.794935 -4e-06 -3e-06
                        CHANNELS 3 Zrotation Yrotation Xrotation
                        JOINT RightHandThumbEnd
                        {
                          OFFSET -3.183852 4e-06 1e-06
                          CHANNELS 3 Zrotation Yrotation Xrotation
                        }
                      }
                    }
                  }
                  JOINT RightHandIndex1
                  {
                    OFFSET -3.253496 -2.33755 -0.127667
                    CHANNELS 3 Zrotation Yrotation Xrotation
                    JOINT RightHandIndex2
                    {
                      OFFSET -6.344434 0.0 0.0
                      CHANNELS 3 Zrotation Yrotation Xrotation
                      JOINT RightHandIndex3
                      {
                        OFFSET -3.654871 0.0 -8e-06
                        CHANNELS 3 Zrotation Yrotation Xrotation
                        JOINT RightHandIndex4
                        {
                          OFFSET -2.327586 -1e-06 0.0
                          CHANNELS 3 Zrotation Yrotation Xrotation
                          JOINT RightHandIndexEnd
                          {
                            OFFSET -2.770001 3e-06 8e-06
                            CHANNELS 3 Zrotation Yrotation Xrotation
                          }
                        }
                      }
                    }
                  }
                  JOINT RightHandMiddle1
                  {
                    OFFSET -3.168223 -0.944764 0.411762
                    CHANNELS 3 Zrotation Yrotation Xrotation
                    JOINT RightHandMiddle2
                    {
                      OFFSET -6.266691 -1e-06 -4e-06
                      CHANNELS 3 Zrotation Yrotation Xrotation
                      JOINT RightHandMiddle3
                      {
                        OFFSET -4.348901 0.0 0.0
                        CHANNELS 3 Zrotation Yrotation Xrotation
                        JOINT RightHandMiddle4
                        {
                          OFFSET -3.00024 2e-06 -4e-06
                          CHANNELS 3 Zrotation Yrotation Xrotation
                          JOINT RightHandMiddleEnd
                          {
                            OFFSET -2.321477 -4e-06 -4e-06
                            CHANNELS 3 Zrotation Yrotation Xrotation
                          }
                        }
                      }
                    }
                  }
                  JOINT RightHandRing1
                  {
                    OFFSET -2.885654 0.293261 -0.119232
                    CHANNELS 3 Zrotation Yrotation Xrotation
                    JOINT RightHandRing2
                    {
                      OFFSET -6.032835 -1e-06 -4e-06
                      CHANNELS 3 Zrotation Yrotation Xrotation
                      JOINT RightHandRing3
                      {
                        OFFSET -4.33881 0.0 -4e-06
                        CHANNELS 3 Zrotation Yrotation Xrotation
                        JOINT RightHandRing4
                        {
                          OFFSET -2.654903 -4e-06 -4e-06
                          CHANNELS 3 Zrotation Yrotation Xrotation
                          JOINT RightHandRingEnd
                          {
                            OFFSET -1.935122 0.0 4e-06
                            CHANNELS 3 Zrotation Yrotation Xrotation
                          }
                        }
                      }
                    }
                  }
                  JOINT RightHandPinky1
                  {
                    OFFSET -2.866241 1.503904 -0.60527
                    CHANNELS 3 Zrotation Yrotation Xrotation
                    JOINT RightHandPinky2
                    {
                      OFFSET -5.553177 -2e-06 0.0
                      CHANNELS 3 Zrotation Yrotation Xrotation
                      JOINT RightHandPinky3
                      {
                        OFFSET -3.062664 -1e-06 -4e-06
                        CHANNELS 3 Zrotation Yrotation Xrotation
                        JOINT RightHandPinky4
                        {
                          OFFSET -1.546529 2e-06 4e-06
                          CHANNELS 3 Zrotation Yrotation Xrotation
                          JOINT RightHandPinkyEnd
                          {
                            OFFSET -1.952341 0.0 -4e-06
                            CHANNELS 3 Zrotation Yrotation Xrotation
                          }
                        }
                      }
                    }
                  }
                }
              }
            }
          }
        }
      }
    }
    JOINT LeftLeg
    {
      OFFSET -8.443107 2.567604 10.043214
      CHANNELS 3 Zrotation Yrotation Xrotation
      JOINT LeftShin
      {
        OFFSET 43.229198 1e-06 -1e-06
        CHANNELS 3 Zrotation Yrotation Xrotation
        JOINT LeftFoot
        {
          OFFSET 42.298611 1e-06 1e-06
          CHANNELS 3 Zrotation Yrotation Xrotation
          JOINT LeftToeBase
          {
            OFFSET 14.165858 1e-06 0.0
            CHANNELS 3 Zrotation Yrotation Xrotation
            JOINT LeftToeEnd
            {
              OFFSET 6.7141 -0.234461 0.0
              CHANNELS 3 Zrotation Yrotation Xrotation
            }
          }
        }
      }
    }
    JOINT RightLeg
    {
      OFFSET -8.303923 2.592729 -10.047278
      CHANNELS 3 Zrotation Yrotation Xrotation
      JOINT RightShin
      {
        OFFSET -43.369682 0.0 1e-06
        CHANNELS 3 Zrotation Yrotation Xrotation
        JOINT RightFoot
        {
          OFFSET -42.260784 4e-06 2e-06
          CHANNELS 3 Zrotation Yrotation Xrotation
          JOINT RightToeBase
          {
            OFFSET -14.222245 -2e-06 -1e-06
            CHANNELS 3 Zrotation Yrotation Xrotation
            JOINT RightToeEnd
            {
              OFFSET -6.660062 0.232574 -2e-06
              CHANNELS 3 Zrotation Yrotation Xrotation
            }
          }
        }
      }
    }
  }
}
MOTION
Frames: 4
Frame Time: 0.03333333333333333
0.0 0.0 0.0 0.0 -0.0 0.0 -2.933835 48.098557 5.463552 94.75209 -54.341095 88.100975 12.459641 -1.529203 -1.594672 -4.143952 -1.246757 -0.932342 21.909107 0.931661 -2.720184 21.357327 3.973965 3.188731 -2.933102 -0.247384 -1.209707 -33.471481 1.732693 -2.667783 7e-06 1e-06 0.0 -0.121633 -0.064462 0.015393 -0.173446 -0.100566 0.035384 -0.18438 -0.026094 -0.0045 -32.758884 -64.377693 34.568317 92.66674 -6.561574 -27.850967 11.013896 -1.724237 -0.004733 2.507527 70.986534 4.403254 17.636637 -26.322729 52.411179 -19.466661 -14.395591 29.410385 -0.0 -8.774819 -2e-06 16.078146 -18.222473 6.782677 -0.609778 -1.795654 -3.889327 -4.807087 -11.046814 -2.93785 2e-06 -20.976019 -0.0 -5.019969 -25.03356 -4.031879 6e-06 -1e-06 2e-06 -10.634535 -5.68697 -3.565587 10.573272 -17.922955 -3.113899 2e-06 -13.821213 1e-06 -0.501779 -31.181511 -4.027017 -11.386541 -59.675629 8.306971 -13.982714 -7.150198 -2.875043 13.772727 -8.401492 -3.21824 0.347732 -34.211555 0.771655 -0.963028 -17.73337 2.62102 -0.0 -0.0 0.0 -17.346422 -20.095221 -4.201782 21.757557 -1.638373 3.86643 1e-06 -6.338825 1e-06 -1.697589 -22.591747 -6.194006 -1e-06 -5e-06 -2e-06 156.533218 -71.934311 26.325977 91.543358 -5.948819 -26.159473 8.267769 -0.85633 -0.065869 21.267689 71.430984 17.71521 22.182117 -20.375891 49.933308 -16.701807 -16.743525 28.476522 1e-06 -12.6906 -2e-06 16.796371 -17.473064 2.475841 -0.105919 -1.513856 -4.27588 -5.039041 -5.612871 -2.953557 3e-06 -11.020524 -2e-06 -6.111298 -15.89533 -3.840469 0.0 -1e-06 -0.0 -10.283369 -5.680288 -4.341838 11.028293 -11.302402 -2.372632 -1.38427 -14.238577 -6.320118 -0.625439 -26.924183 -3.827598 -4.490698 -49.230751 -3.974829 -13.708522 -7.363474 -3.720939 18.141146 -14.052739 -3.242673 5e-06 -18.78727 -1e-06 -0.429712 -8.456043 2.555503 -0.0 2e-06 -0.0 -15.923532 -20.094481 -5.473583 30.419205 -7.190823 1.735928 3e-06 -8.162921 -1e-06 -1.861904 -22.861467 -6.16794 -1e-06 -3e-06 -1e-06 116.154213 -8.136013 5.192361 122.543266 -0.71014 0.107205 -101.094391 11.580452 0.150794 -36.023346 1.726388 1.378267 -1.0 0.0 0.0 -63.399429 -8.707828 -0.625763 119.145821 -0.055758 0.2457 -66.825325 7.19651 2.14235 -25.373554 0.993497 1.371935 -1.000003 -0.0 0.0 
0.0 0.0 0.0 0.0 -0.0 0.0 -2.85585 48.07296 5.523442 94.521782 -54.418324 88.308289 12.416205 -1.481181 -1.564456 -4.196989 -1.236511 -0.899114 21.937292 0.952567 -2.627582 21.417511 3.958724 3.090326 -2.915937 -0.285133 -1.268746 -33.310516 1.789542 -2.770888 7e-06 -0.0 0.0 -0.122222 -0.082476 0.013497 -0.145466 -0.123924 0.04178 -0.157722 -0.037726 -0.016871 -32.677227 -64.49173 34.728107 92.895317 -6.401737 -27.985561 10.73458 -1.671764 -0.017385 3.848478 70.959816 5.579319 17.636627 -26.322735 52.411213 -19.466665 -14.3956 29.410395 -1e-06 -8.774822 -1e-06 16.071646 -18.247047 6.811818 -0.609777 -1.795654 -3.889328 -4.807088 -11.046814 -2.937851 3e-06 -20.976021 -1e-06 -5.019972 -25.033562 -4.031881 6e-06 -1e-06 -1e-06 -10.634536 -5.686972 -3.565588 10.573274 -17.922955 -3.113902 3e-06 -13.82121 -1e-06 -0.501777 -31.181505 -4.027017 -11.27366 -59.790356 8.272178 -13.982716 -7.150199 -2.875042 13.772731 -8.401495 -3.218243 0.347733 -34.211555 0.771655 -0.963029 -17.733372 2.62102 -0.0 -0.0 -0.0 -17.346422 -20.095221 -4.201784 21.757559 -1.638374 3.866429 1e-06 -6.338826 1e-06 -1.697589 -22.591749 -6.194008 -0.0 -5e-06 -2e-06 156.333954 -71.90873 26.659678 91.540321 -5.905521 -26.336109 8.171145 -0.815948 -0.05384 21.463068 71.179642 17.645588 22.182123 -20.3759 49.933338 -16.701818 -16.743536 28.476542 -2e-06 -12.690607 -1e-06 16.780203 -17.438204 2.490654 -0.105919 -1.513858 -4.275884 -5.039042 -5.612873 -2.953558 5e-06 -11.020524 -2e-06 -6.1113 -15.89533 -3.840471 -1e-06 -2e-06 -1e-06 -10.283373 -5.680291 -4.341841 11.028296 -11.302403 -2.372633 -1.384269 -14.238581 -6.320123 -0.625435 -26.924187 -3.827604 -4.498399 -49.322319 -3.878063 -13.708529 -7.363478 -3.720941 18.141153 -14.052738 -3.242674 7e-06 -18.787273 -1e-06 -0.429711 -8.456045 2.555504 0.0 2e-06 -0.0 -15.923541 -20.094486 -5.473589 30.419224 -7.190827 1.735928 3e-06 -8.162925 -0.0 -1.861903 -22.861473 -6.167943 0.0 -3e-06 -1e-06 116.089081 -8.145683 5.209881 122.501068 -0.730607 0.118502 -100.721092 11.506569 0.290296 -35.818211 1.729674 1.36148 -1.0 -0.0 -0.0 -63.37756 -8.661998 -0.6942 119.01741 -0.068971 0.230634 -66.483467 7.188259 2.286652 -25.120165 0.983608 1.383361 -1.000001 -0.0 0.0 
0.0 0.0 0.0 0.0 -0.0 0.0 -2.76032 48.071609 5.562106 94.412537 -54.443989 88.458588 12.361075 -1.439039 -1.521682 -4.246419 -1.224214 -0.854635 21.983776 0.947224 -2.582208 21.52286 3.952752 2.959025 -2.907593 -0.336865 -1.330422 -33.244427 1.80638 -2.874966 6e-06 0.0 0.0 -0.119412 -0.106447 0.017588 -0.176773 -0.148774 0.038207 -0.183953 -0.060345 -0.007775 -32.333965 -64.57151 34.551678 93.013512 -6.332123 -27.762178 10.617825 -1.611492 -0.017352 3.749122 70.831978 5.322034 17.636633 -26.322733 52.41119 -19.46665 -14.395597 29.410381 -0.0 -8.77482 -2e-06 16.06859 -18.24762 6.816217 -0.609777 -1.795655 -3.889328 -4.80709 -11.046811 -2.93785 2e-06 -20.976019 1e-06 -5.019974 -25.03356 -4.031881 6e-06 -1e-06 1e-06 -10.634535 -5.686971 -3.565588 10.573271 -17.922953 -3.113899 1e-06 -13.821213 0.0 -0.50178 -31.181505 -4.027016 -11.154136 -59.874962 8.219965 -13.982716 -7.150199 -2.875042 13.772729 -8.401491 -3.21824 0.347731 -34.211555 0.771656 -0.963029 -17.733372 2.62102 -0.0 0.0 0.0 -17.346422 -20.095221 -4.20178 21.757559 -1.638373 3.86643 1e-06 -6.338826 1e-06 -1.697591 -22.591747 -6.194007 -0.0 -3e-06 -2e-06 156.508743 -71.889717 26.605169 91.351852 -5.924312 -26.484194 8.162097 -0.810966 -0.047955 21.54459 71.089676 17.806839 22.182117 -20.375896 49.933319 -16.701811 -16.743526 28.476522 -2e-06 -12.690599 -1e-06 16.762268 -17.37097 2.521841 -0.105919 -1.513855 -4.275879 -5.039041 -5.612875 -2.953557 4e-06 -11.020524 -1e-06 -6.111297 -15.895334 -3.840471 0.0 1e-06 1e-06 -10.28337 -5.680287 -4.341838 11.028296 -11.302407 -2.372632 -1.38427 -14.238583 -6.32012 -0.625441 -26.924196 -3.827598 -4.470057 -49.341812 -3.802393 -13.708524 -7.363476 -3.72094 18.141148 -14.052739 -3.242674 5e-06 -18.787271 -1e-06 -0.429711 -8.456043 2.555503 -0.0 2e-06 -0.0 -15.923534 -20.094484 -5.473584 30.41921 -7.190826 1.735927 3e-06 -8.162927 -1e-06 -1.861902 -22.861473 -6.167941 -1e-06 -3e-06 -1e-06 116.073914 -8.092449 5.141992 122.48983 -0.746749 0.129838 -100.632881 11.399355 0.345607 -35.869564 1.732813 1.357521 -0.999999 -0.0 -0.0 -63.336994 -8.68048 -0.646144 118.9328 -0.069404 0.228687 -66.328148 7.271962 2.282868 -25.103331 0.969572 1.396879 -1.000001 -0.0 0.0 
0.0 0.0 0.0 0.0 -0.0 0.0 -2.668855 48.073406 5.524979 94.364304 -54.463345 88.578896 12.316772 -1.410234 -1.495086 -4.284754 -1.226222 -0.824402 22.007013 0.966789 -2.563775 21.58672 3.881787 2.832929 -2.901065 -0.390321 -1.415789 -33.25436 1.84534 -2.970783 7e-06 -0.0 -0.0 -0.11944 -0.129347 0.02384 -0.223798 -0.169723 0.030941 -0.224171 -0.085504 0.010477 -32.092522 -64.632324 34.455433 93.1157 -6.274828 -27.62137 10.586804 -1.586537 -0.020055 3.687184 70.831551 5.429239 17.636631 -26.322729 52.411201 -19.466665 -14.395604 29.410395 -1e-06 -8.774822 -1e-06 16.056673 -18.240099 6.818219 -0.609776 -1.795655 -3.889328 -4.807088 -11.046811 -2.93785 6e-06 -20.976013 -2e-06 -5.019969 -25.033554 -4.031882 6e-06 -1e-06 1e-06 -10.634533 -5.686969 -3.565587 10.573277 -17.922951 -3.113903 4e-06 -13.821209 0.0 -0.501774 -31.181498 -4.027016 -11.115699 -59.938805 8.186007 -13.982715 -7.150197 -2.875041 13.772733 -8.401491 -3.218244 0.347736 -34.211544 0.771654 -0.963027 -17.733366 2.62102 0.0 -0.0 -0.0 -17.346416 -20.095213 -4.201783 21.757561 -1.638376 3.866427 2e-06 -6.338823 1e-06 -1.697587 -22.59174 -6.194007 -0.0 -3e-06 -1e-06 156.815369 -71.816231 26.36972 91.140419 -5.992868 -26.546551 8.217371 -0.788662 -0.046487 21.270596 71.133858 17.672626 22.182108 -20.375891 49.933304 -16.701817 -16.74353 28.476526 -2e-06 -12.690601 -1e-06 16.755745 -17.331995 2.558974 -0.105919 -1.513858 -4.27588 -5.039039 -5.612869 -2.953556 5e-06 -11.02052 -2e-06 -6.111296 -15.89533 -3.840471 0.0 -0.0 1e-06 -10.283367 -5.680287 -4.341837 11.028294 -11.302404 -2.372633 -1.384268 -14.238577 -6.32012 -0.625437 -26.924187 -3.8276 -4.442012 -49.379051 -3.749783 -13.708522 -7.363476 -3.720938 18.141148 -14.052736 -3.242674 6e-06 -18.78727 -2e-06 -0.429711 -8.456042 2.555504 -0.0 -0.0 -0.0 -15.923534 -20.094479 -5.473583 30.41921 -7.190823 1.735922 2e-06 -8.162925 -1e-06 -1.861903 -22.861467 -6.16794 0.0 -3e-06 -1e-06 115.965935 -7.999285 5.091953 122.567459 -0.74547 0.141305 -100.611931 11.305138 0.383777 -36.209526 1.737302 1.350215 -1.000001 -0.0 0.0 -63.394253 -8.744946 -0.527712 118.963661 -0.036598 0.23297 -66.304543 7.27647 2.205996 -25.213747 0.95967 1.409585 -1.000001 0.0 0.0 
